<svg width="16" height="16" viewBox="0 0 16 16" fill="none" xmlns="http://www.w3.org/2000/svg">
<path d="M6.04314 13.3334C5.66597 13.3334 5.34243 13.1941 5.0725 12.9155C4.80216 12.6365 4.66699 12.3025 4.66699 11.9132C4.66699 11.5345 4.80216 11.2084 5.0725 10.9349C5.34243 10.6614 5.66597 10.5247 6.04314 10.5247C6.41011 10.5247 6.72612 10.6614 6.99115 10.9349C7.25619 11.2084 7.3887 11.5345 7.3887 11.9132C7.3887 12.3025 7.25619 12.6365 6.99115 12.9155C6.72612 13.1941 6.41011 13.3334 6.04314 13.3334ZM9.9728 13.3334C9.59564 13.3334 9.27453 13.1941 9.0095 12.9155C8.74446 12.6365 8.61195 12.3025 8.61195 11.9132C8.61195 11.5345 8.74446 11.2084 9.0095 10.9349C9.27453 10.6614 9.59054 10.5247 9.95751 10.5247C10.3347 10.5247 10.6584 10.6614 10.9288 10.9349C11.1987 11.2084 11.3337 11.5345 11.3337 11.9132C11.3337 12.3025 11.1987 12.6365 10.9288 12.9155C10.6584 13.1941 10.3398 13.3334 9.9728 13.3334ZM6.04314 9.38858C5.66597 9.38858 5.34243 9.25183 5.0725 8.97832C4.80216 8.70482 4.66699 8.37872 4.66699 8.00002C4.66699 7.6108 4.80216 7.28218 5.0725 7.01414C5.34243 6.74569 5.66597 6.61146 6.04314 6.61146C6.41011 6.61146 6.72612 6.74569 6.99115 7.01414C7.25619 7.28218 7.3887 7.6108 7.3887 8.00002C7.3887 8.37872 7.25619 8.70482 6.99115 8.97832C6.72612 9.25183 6.41011 9.38858 6.04314 9.38858ZM9.9728 9.38858C9.59564 9.38858 9.27453 9.25183 9.0095 8.97832C8.74446 8.70482 8.61195 8.37872 8.61195 8.00002C8.61195 7.6108 8.74446 7.28218 9.0095 7.01414C9.27453 6.74569 9.59054 6.61146 9.95751 6.61146C10.3347 6.61146 10.6584 6.74569 10.9288 7.01414C11.1987 7.28218 11.3337 7.6108 11.3337 8.00002C11.3337 8.37872 11.1987 8.70482 10.9288 8.97832C10.6584 9.25183 10.3398 9.38858 9.9728 9.38858ZM6.04314 5.47537C5.66597 5.47537 5.34243 5.33861 5.0725 5.06511C4.80216 4.7916 4.66699 4.4655 4.66699 4.08681C4.66699 3.69759 4.80216 3.36349 5.0725 3.08452C5.34243 2.80596 5.66597 2.66669 6.04314 2.66669C6.41011 2.66669 6.72612 2.80596 6.99115 3.08452C7.25619 3.36349 7.3887 3.69233 7.3887 4.07103C7.3887 4.46024 7.25619 4.7916 6.99115 5.06511C6.72612 5.33861 6.41011 5.47537 6.04314 5.47537ZM9.9728 5.47537C9.59564 5.47537 9.27453 5.33861 9.0095 5.06511C8.74446 4.7916 8.61195 4.4655 8.61195 4.08681C8.61195 3.69759 8.74446 3.36349 9.0095 3.08452C9.27453 2.80596 9.59054 2.66669 9.95751 2.66669C10.3347 2.66669 10.6584 2.80596 10.9288 3.08452C11.1987 3.36349 11.3337 3.69233 11.3337 4.07103C11.3337 4.46024 11.1987 4.7916 10.9288 5.06511C10.6584 5.33861 10.3398 5.47537 9.9728 5.47537Z" fill="#B5B5B5"/>
</svg>
