<svg width="16" height="16" viewBox="0 0 16 16" fill="none" xmlns="http://www.w3.org/2000/svg">
<path d="M4.60724 6H11.3928C11.5129 6.00002 11.6303 6.03096 11.7301 6.0889C11.83 6.14684 11.9078 6.22919 11.9538 6.32553C11.9997 6.42187 12.0118 6.52787 11.9883 6.63014C11.9649 6.73241 11.9071 6.82636 11.8222 6.9001L8.42941 9.84561C8.31551 9.94447 8.16105 10 8 10C7.83895 10 7.68449 9.94447 7.57059 9.84561L4.17783 6.9001C4.09291 6.82636 4.03509 6.73241 4.01166 6.63014C3.98824 6.52787 4.00027 6.42187 4.04623 6.32553C4.09219 6.22919 4.17001 6.14684 4.26987 6.0889C4.36973 6.03096 4.48713 6.00002 4.60724 6Z" fill="#353535"/>
</svg>
