<svg width="8" height="4" viewBox="0 0 8 4" fill="none" xmlns="http://www.w3.org/2000/svg">
<path d="M0.607239 0H7.39276C7.51287 2.2265e-05 7.63027 0.0309599 7.73013 0.0889021C7.82999 0.146844 7.90781 0.22919 7.95377 0.325528C7.99973 0.421866 8.01176 0.52787 7.98834 0.630142C7.96491 0.732414 7.90709 0.82636 7.82217 0.900104L4.42941 3.84561C4.31551 3.94447 4.16105 4 4 4C3.83895 4 3.68449 3.94447 3.57059 3.84561L0.17783 0.900104C0.0929137 0.82636 0.0350883 0.732414 0.0116636 0.630142C-0.0117612 0.52787 0.000266709 0.421866 0.0462263 0.325528C0.0921859 0.22919 0.170014 0.146844 0.269871 0.0889021C0.369729 0.0309599 0.487132 2.2265e-05 0.607239 0Z" fill="#B5B5B5"/>
</svg>
