<svg width="16" height="16" viewBox="0 0 16 16" fill="none" xmlns="http://www.w3.org/2000/svg">
<path d="M6.03334 6.16672C5.82594 6.16672 5.64967 6.0957 5.50453 5.95367C5.35939 5.81163 5.28682 5.63913 5.28682 5.43617C5.28682 5.2332 5.35939 5.0607 5.50453 4.91867C5.64967 4.77663 5.82594 4.70561 6.03334 4.70561H12.5871C12.7945 4.70561 12.9708 4.77663 13.1159 4.91867C13.2611 5.0607 13.3337 5.2332 13.3337 5.43617C13.3337 5.63913 13.2611 5.81163 13.1159 5.95367C12.9708 6.0957 12.7945 6.16672 12.5871 6.16672H6.03334ZM6.03334 8.73055C5.82594 8.73055 5.64967 8.65953 5.50453 8.51749C5.35939 8.37545 5.28682 8.20295 5.28682 7.99999C5.28682 7.79703 5.35939 7.62453 5.50453 7.48249C5.64967 7.34045 5.82594 7.26943 6.03334 7.26943H12.5871C12.7945 7.26943 12.9708 7.34045 13.1159 7.48249C13.2611 7.62453 13.3337 7.79703 13.3337 7.99999C13.3337 8.20295 13.2611 8.37545 13.1159 8.51749C12.9708 8.65953 12.7945 8.73055 12.5871 8.73055H6.03334ZM6.03334 11.2944C5.82594 11.2944 5.64967 11.2234 5.50453 11.0813C5.35939 10.9393 5.28682 10.7668 5.28682 10.5638C5.28682 10.3608 5.35939 10.1883 5.50453 10.0463C5.64967 9.90428 5.82594 9.83326 6.03334 9.83326H12.5871C12.7945 9.83326 12.9708 9.90428 13.1159 10.0463C13.2611 10.1883 13.3337 10.3608 13.3337 10.5638C13.3337 10.7668 13.2611 10.9393 13.1159 11.0813C12.9708 11.2234 12.7945 11.2944 12.5871 11.2944H6.03334ZM3.45332 6.20568C3.2353 6.20568 3.04974 6.13077 2.89663 5.98094C2.74354 5.83111 2.66699 5.64952 2.66699 5.43617C2.66699 5.22281 2.74354 5.04122 2.89663 4.89139C3.04974 4.74157 3.2353 4.66666 3.45332 4.66666C3.67132 4.66666 3.85555 4.74157 4.006 4.89139C4.15644 5.04122 4.23167 5.22281 4.23167 5.43617C4.23167 5.64952 4.15644 5.83111 4.006 5.98094C3.85555 6.13077 3.67132 6.20568 3.45332 6.20568ZM3.45332 8.7695C3.2353 8.7695 3.04974 8.69459 2.89663 8.54476C2.74354 8.39493 2.66699 8.21335 2.66699 7.99999C2.66699 7.78663 2.74354 7.60504 2.89663 7.45522C3.04974 7.30539 3.2353 7.23048 3.45332 7.23048C3.67132 7.23048 3.85555 7.30539 4.006 7.45522C4.15644 7.60504 4.23167 7.78663 4.23167 7.99999C4.23167 8.21335 4.15644 8.39493 4.006 8.54476C3.85555 8.69459 3.67132 8.7695 3.45332 8.7695ZM3.45332 11.3333C3.2353 11.3333 3.04974 11.2584 2.89663 11.1086C2.74354 10.9588 2.66699 10.7772 2.66699 10.5638C2.66699 10.3505 2.74354 10.1689 2.89663 10.019C3.04974 9.86921 3.2353 9.7943 3.45332 9.7943C3.67132 9.7943 3.85555 9.86921 4.006 10.019C4.15644 10.1689 4.23167 10.3505 4.23167 10.5638C4.23167 10.7772 4.15644 10.9588 4.006 11.1086C3.85555 11.2584 3.67132 11.3333 3.45332 11.3333Z" fill="#353535"/>
</svg>
